<svg width="24" height="24" viewBox="0 0 24 24" fill="none" xmlns="http://www.w3.org/2000/svg">
<path d="M14 20C12.9 20 11.9583 19.6083 11.175 18.825C10.3917 18.0417 10 17.1 10 16C10 14.9 10.3917 13.9583 11.175 13.175C11.9583 12.3917 12.9 12 14 12C14.3833 12 14.7375 12.0458 15.0625 12.1375C15.3875 12.2292 15.7 12.3667 16 12.55V4H22V7H18V16C18 17.1 17.6083 18.0417 16.825 18.825C16.0417 19.6083 15.1 20 14 20ZM2 16C2 14.35 2.31667 12.7958 2.95 11.3375C3.58333 9.87917 4.44167 8.60833 5.525 7.525C6.60833 6.44167 7.87917 5.58333 9.3375 4.95C10.7958 4.31667 12.35 4 14 4V6C12.6333 6 11.3417 6.2625 10.125 6.7875C8.90833 7.3125 7.84583 8.02917 6.9375 8.9375C6.02917 9.84583 5.3125 10.9042 4.7875 12.1125C4.2625 13.3208 4 14.6167 4 16H2ZM6 16C6 14.9 6.2125 13.8625 6.6375 12.8875C7.0625 11.9125 7.6375 11.0625 8.3625 10.3375C9.0875 9.6125 9.93333 9.04167 10.9 8.625C11.8667 8.20833 12.9 8 14 8V10C12.3333 10 10.9167 10.5833 9.75 11.75C8.58333 12.9167 8 14.3333 8 16H6Z" fill="white"/>
</svg>
