<svg width="512" height="512" viewBox="0 0 512 512" fill="none" xmlns="http://www.w3.org/2000/svg">
<path d="M268.749 160.919C219.179 131.354 137.413 128.635 90.0918 143.059C82.4924 145.374 74.4568 141.066 72.1542 133.434C69.8516 125.799 74.1369 117.734 81.7413 115.414C136.063 98.852 226.364 102.052 283.431 136.073C290.268 140.147 292.51 149.013 288.457 155.868C284.402 162.731 275.568 164.994 268.749 160.919ZM267.126 204.71C263.65 210.378 256.271 212.154 250.636 208.675C209.308 183.162 146.289 175.772 97.3963 190.676C91.0559 192.601 84.3589 189.011 82.4336 182.654C80.5225 176.287 84.0992 169.573 90.4282 167.636C146.282 150.615 215.715 158.86 263.182 188.156C268.817 191.641 270.591 199.056 267.126 204.71ZM248.309 246.765C245.547 251.315 239.645 252.742 235.131 249.969C199.018 227.803 153.564 222.795 100.035 235.076C94.8755 236.264 89.7352 233.016 88.5581 227.837C87.3767 222.657 90.5968 217.495 95.7672 216.313C154.346 202.863 204.596 208.652 245.13 233.527C249.649 236.299 251.073 242.228 248.309 246.765ZM177.783 24C92.8528 24 24 93.1458 24 178.443C24 263.747 92.8528 332.891 177.783 332.891C262.717 332.891 331.566 263.747 331.566 178.443C331.566 93.1458 262.717 24 177.783 24Z" fill="#1ED760"/>
<path fill-rule="evenodd" clip-rule="evenodd" d="M180.434 333.551C180.434 248.254 249.287 179.109 334.217 179.109C419.151 179.109 488 248.254 488 333.551C488 418.856 419.151 488 334.217 488C249.287 488 180.434 418.856 180.434 333.551ZM284.111 414.815C292.245 422.95 302.024 427.017 313.448 427.017C324.871 427.017 334.65 422.95 342.785 414.815C350.919 406.68 354.987 396.901 354.987 385.478V281.63H396.526V240.091H334.217V349.651C331.102 347.747 327.856 346.319 324.481 345.367C321.106 344.415 317.428 343.939 313.448 343.939C302.024 343.939 292.245 348.006 284.111 356.141C275.976 364.276 271.909 374.055 271.909 385.478C271.909 396.901 275.976 406.68 284.111 414.815Z" fill="white"/>
<path fill-rule="evenodd" clip-rule="evenodd" d="M250.636 208.675C256.271 212.154 263.65 210.378 267.126 204.71C269.161 201.389 269.389 197.46 268.089 194.077C287.371 184.84 308.869 179.517 331.564 179.131C331.199 263.23 263.918 331.451 180.436 332.869C180.588 297.453 192.611 264.851 212.714 238.869C220.543 241.902 228.018 245.603 235.131 249.969C239.645 252.742 245.547 251.315 248.309 246.765C251.073 242.228 249.649 236.299 245.13 233.527C239.042 229.791 232.734 226.485 226.212 223.61C232.576 217.304 239.484 211.551 246.86 206.429C248.138 207.162 249.396 207.91 250.636 208.675Z" fill="white"/>
</svg>
